<?xml version="1.0" standalone="no"?>
<!DOCTYPE svg PUBLIC "-//W3C//DTD SVG 20010904//EN"
 "http://www.w3.org/TR/2001/REC-SVG-20010904/DTD/svg10.dtd">
<svg version="1.0" xmlns="http://www.w3.org/2000/svg"
 width="278.000000pt" height="278.000000pt" viewBox="0 0 278.000000 278.000000"
 preserveAspectRatio="xMidYMid meet">
<metadata>
Created by potrace 1.11, written by Peter Selinger 2001-2013
</metadata>
<g transform="translate(0.000000,278.000000) scale(0.100000,-0.100000)"
fill="#000000" stroke="none">
<path d="M615 2683 c-241 -42 -408 -148 -504 -318 -32 -58 -68 -150 -76 -197
-4 -18 -10 -51 -15 -73 -10 -41 -6 -320 4 -365 3 -14 8 -34 10 -45 12 -56 20
-87 43 -163 l26 -83 289 3 290 2 60 78 c82 109 103 105 158 -27 18 -44 39 -96
48 -115 l15 -35 32 100 c189 581 198 606 218 620 18 13 24 13 42 1 16 -10 28
-48 56 -172 62 -272 130 -573 134 -591 2 -10 9 -40 15 -68 6 -27 13 -58 15
-68 2 -10 6 -26 9 -35 3 -9 8 -33 11 -52 6 -33 20 -92 32 -134 3 -12 47 105
117 312 61 182 116 336 123 343 22 22 61 1 82 -44 11 -23 39 -84 64 -134 l45
-93 21 36 c12 19 21 38 21 42 0 26 49 30 354 28 278 -2 318 0 325 14 16 30 63
211 76 292 20 118 13 341 -13 438 -20 76 -70 192 -84 198 -4 2 -8 9 -8 16 0
21 -90 115 -153 160 -74 53 -150 87 -243 111 -75 19 -228 27 -284 14 -19 -4
-46 -10 -60 -13 -64 -12 -182 -66 -258 -118 -66 -45 -172 -159 -217 -232 -22
-36 -43 -65 -46 -66 -3 0 -16 19 -29 42 -27 49 -119 159 -169 203 -94 83 -186
133 -307 166 -72 20 -215 31 -269 22z"/>
<path d="M1115 1514 c-95 -290 -113 -338 -133 -345 -35 -13 -52 12 -113 160
l-54 133 -25 -33 c-66 -87 -29 -79 -357 -80 l-291 -2 9 -25 c21 -55 105 -211
153 -282 179 -270 492 -557 913 -837 l172 -115 158 105 c378 252 660 496 849
737 92 117 234 361 234 402 0 11 -57 13 -272 12 -150 -1 -276 -2 -280 -3 -4 0
-26 -34 -49 -75 -45 -79 -75 -98 -103 -67 -8 9 -39 67 -69 129 -30 62 -57 107
-59 100 -3 -7 -56 -166 -118 -353 -108 -325 -128 -375 -155 -375 -33 0 -46 33
-90 230 -2 8 -9 38 -15 65 -6 28 -14 61 -16 75 -3 14 -11 50 -19 80 -8 30 -16
66 -19 80 -2 14 -16 75 -30 135 -14 61 -27 121 -30 135 -6 31 -75 332 -79 343
-1 5 -52 -143 -112 -329z"/>
</g>
</svg>
